<svg width="378" height="252" viewBox="0 0 378 252" fill="none" xmlns="http://www.w3.org/2000/svg">
<circle cx="75" cy="135" r="38" fill="white"/>
<circle cx="45.5" cy="152.5" r="20.5" fill="white"/>
<circle cx="212.5" cy="152.5" r="20.5" fill="white"/>
<circle cx="126" cy="135" r="38" fill="white"/>
<path d="M219 135C219 155.987 201.987 173 181 173C160.013 173 69.5 159.987 69.5 139C69.5 118.013 160.013 97 181 97C201.987 97 219 114.013 219 135Z" fill="white"/>
<path d="M192 105C192 132.062 170.062 154 143 154C115.938 154 93 132.062 93 105C93 77.938 115.938 56 143 56C170.062 56 192 77.938 192 105Z" fill="white"/>
</svg>
