<svg width="196" height="196" viewBox="0 0 196 196" fill="none" xmlns="http://www.w3.org/2000/svg">
<ellipse cx="97" cy="120.23" rx="38" ry="39.8782" fill="#C82F26"/>
<path d="M74.0232 38.2227C74.0234 71.669 55.9921 88.1445 59.7298 125.296H134.705C137.041 94.8456 114.085 72.9554 111.123 38.2227C104.364 58.1619 117.031 57.5187 107.619 73.9684C98.7674 66.5234 90.8139 43.0467 91.8504 19.8916C84.0387 41.1171 85.5118 74.2418 78.1473 61.0562L77.2633 51.4083L74.0232 38.2227Z" fill="#C82F26"/>
<ellipse cx="22.9767" cy="22.0862" rx="22.9767" ry="22.0862" transform="matrix(-1 0 0 1 120.271 110.94)" fill="#EA5C0D"/>
<path d="M111.355 95.8983C115.122 100.636 122.09 115.256 119.83 135.832L74.8071 138.37C73.3946 121.505 74.2068 87.7425 88.7554 87.6071C87.284 87.8891 85.6479 92.2434 90.8741 107.405C93.5225 102.328 99.1372 89.2315 100.408 77.4546C101.527 89.0736 105.034 110.586 110.119 103.682L111.355 95.8983Z" fill="#EA5C0D"/>
<ellipse cx="15.3178" cy="14.7241" rx="15.3178" ry="14.7241" transform="matrix(-1 0 0 1 112.612 122.339)" fill="#FFED46"/>
<path d="M106.668 112.311C109.179 115.47 113.825 125.216 112.318 138.934L82.3027 140.626C81.361 129.383 81.9025 106.874 91.6016 106.784C90.6207 106.972 89.5299 109.875 93.0141 119.982C94.7797 116.598 98.5227 107.867 99.3702 100.016C100.116 107.762 102.454 122.103 105.844 117.501L106.668 112.311Z" fill="#FFED46"/>
<ellipse cx="11.1938" cy="10.7599" rx="11.1938" ry="10.7599" transform="matrix(-1 0 0 1 108.488 126.934)" fill="white"/>
<path d="M104.144 119.606C105.979 121.914 109.374 129.036 108.273 139.06L86.339 140.297C85.6508 132.081 86.0465 115.632 93.1343 115.566C92.4175 115.704 91.6204 117.825 94.1665 125.211C95.4567 122.738 98.1921 116.358 98.8114 110.62C99.3562 116.281 101.065 126.761 103.542 123.398L104.144 119.606Z" fill="white"/>
</svg>
